<svg width="152" height="132" viewBox="0 0 152 132" fill="none" xmlns="http://www.w3.org/2000/svg">
<path d="M75.4935 131.296C65.5786 132.758 55.4614 131.936 45.9116 128.892C36.3618 125.848 27.631 120.662 20.3835 113.73C13.136 106.797 7.56279 98.2997 4.0879 88.8846C0.613001 79.4694 -0.67202 69.3845 0.33061 59.397C1.33324 49.4095 4.5971 39.7827 9.87386 31.249C15.1506 22.7152 22.3012 15.4995 30.7817 10.1507C39.2621 4.80189 48.8488 1.46102 58.8125 0.382257C68.7762 -0.696505 78.8543 0.515268 88.28 3.92537L89.1467 4.22994L83.582 19.5954L82.7154 19.2756C74.5296 16.3168 65.7123 15.5599 57.1432 17.0803C48.5741 18.6007 40.553 22.3454 33.8801 27.9406C24.2652 36.553 18.3773 48.5777 17.4648 61.465C16.5524 74.3523 20.6872 87.0889 28.9924 96.9742C37.2977 106.859 49.1204 113.116 61.9537 114.418C74.7871 115.719 87.6219 111.963 97.7369 103.946C103.326 99.2313 107.815 93.3458 110.886 86.7046C113.957 80.0633 115.535 72.8281 115.51 65.5091L104.868 75.0421L94.4681 63.4837L124.633 36.301L152 66.7579L140.46 77.1741L131.718 67.5345C131.374 83.1129 125.538 98.0669 115.241 109.748C104.945 121.429 90.8539 129.084 75.4631 131.357L75.4935 131.296Z" fill="white"/>
</svg>
